<svg width="86" height="86" viewBox="0 0 86 86" fill="none" xmlns="http://www.w3.org/2000/svg">
<path d="M43 86C34.4954 86 26.1818 83.4781 19.1105 78.7532C12.0392 74.0283 6.52777 67.3126 3.2732 59.4554C0.0186311 51.5982 -0.832912 42.9523 0.826252 34.6111C2.48542 26.2699 6.58077 18.6081 12.5944 12.5944C18.6081 6.58077 26.2699 2.48542 34.6111 0.826252C42.9523 -0.832912 51.5982 0.0186311 59.4554 3.2732C67.3126 6.52777 74.0283 12.0392 78.7532 19.1105C83.4781 26.1818 86 34.4954 86 43C85.9868 54.4003 81.4523 65.3298 73.3911 73.3911C65.3298 81.4523 54.4003 85.9868 43 86ZM43 4.31329C35.3485 4.31329 27.8688 6.58223 21.5068 10.8332C15.1448 15.0841 10.1862 21.1262 7.25814 28.1952C4.33004 35.2643 3.56391 43.0429 5.05665 50.5474C6.54938 58.0519 10.2339 64.9452 15.6444 70.3557C21.0548 75.7661 27.9481 79.4506 35.4526 80.9434C42.9571 82.4361 50.7357 81.67 57.8048 78.7419C64.8739 75.8138 70.9159 70.8552 75.1668 64.4932C79.4178 58.1312 81.6867 50.6515 81.6867 43C81.6744 32.7434 77.5946 22.9105 70.3421 15.6579C63.0896 8.40544 53.2566 4.32558 43 4.31329Z" fill="#383838"/>
<path d="M17.3757 57.9083V28.0903C17.4138 27.9928 17.4459 27.8931 17.472 27.7917C17.6093 26.9664 17.9112 26.1771 18.3598 25.4709C18.8084 24.7647 19.3944 24.1559 20.0831 23.6808C20.9456 23.1176 21.9126 22.734 22.9266 22.5527H63.0732C63.152 22.5904 63.2342 22.6204 63.3187 22.6423C64.2554 22.7707 65.1484 23.119 65.9246 23.6588C66.7008 24.1986 67.3382 24.9145 67.7846 25.7479C68.1761 26.4612 68.352 27.2973 68.624 28.0704V57.8884C68.584 57.9852 68.5518 58.085 68.5278 58.187C68.2875 59.6382 67.5434 60.9583 66.4263 61.9152C65.3092 62.8722 63.8905 63.4047 62.4196 63.4193C49.4731 63.4326 36.5333 63.4326 23.6001 63.4193C22.2556 63.4085 20.9502 62.9661 19.8761 62.1573C18.8021 61.3485 18.0163 60.2161 17.6345 58.9269C17.535 58.5951 17.452 58.2633 17.3757 57.9083ZM65.2099 34.2152L64.6691 34.5469C57.8962 38.889 51.1254 43.2354 44.3569 47.5863C43.4146 48.1968 42.6216 48.2167 41.6661 47.5863C34.9086 43.2199 28.1368 38.8724 21.3506 34.5436C21.1946 34.4441 21.0188 34.3545 20.7899 34.2118V56.7736C20.7899 58.8771 21.9445 60.0152 24.0646 60.0152H61.9119C64.0752 60.0152 65.2298 58.8871 65.2298 56.747V34.1853L65.2099 34.2152ZM43.043 25.9602H35.7436C31.7622 25.9602 27.7807 25.9602 23.7992 25.9602C23.0992 25.9311 22.4128 26.1599 21.8703 26.6033C21.3278 27.0468 20.967 27.6739 20.8562 28.3657C20.7899 28.7638 20.8562 29.1819 20.8031 29.5834C20.7772 29.7555 20.8074 29.9314 20.8892 30.085C20.9711 30.2386 21.1003 30.3617 21.2577 30.4361C28.3823 34.9838 35.4981 39.5459 42.6051 44.1224C42.7238 44.22 42.8727 44.2734 43.0264 44.2734C43.1801 44.2734 43.3291 44.22 43.4478 44.1224C50.4265 39.6145 57.4184 35.1298 64.4236 30.6683C64.6908 30.5336 64.911 30.321 65.0549 30.0586C65.1989 29.7962 65.2598 29.4963 65.2298 29.1985C65.1767 27.1016 64.0586 25.9602 61.9385 25.9602H43.043Z" fill="#383838"/>
</svg>
