<svg width="87" height="87" viewBox="0 0 87 87" fill="none" xmlns="http://www.w3.org/2000/svg">
<path d="M43.5 87C34.8965 87 26.4862 84.4488 19.3327 79.6689C12.1792 74.8891 6.60367 68.0953 3.31126 60.1467C0.0188477 52.1982 -0.842597 43.4518 0.83586 35.0136C2.51432 26.5754 6.65729 18.8245 12.7409 12.7409C18.8245 6.65729 26.5754 2.51432 35.0136 0.83586C43.4518 -0.842597 52.1982 0.0188477 60.1467 3.31126C68.0953 6.60367 74.8891 12.1792 79.6689 19.3327C84.4488 26.4862 87 34.8965 87 43.5C86.9867 55.0328 82.3994 66.0895 74.2444 74.2444C66.0895 82.3994 55.0328 86.9867 43.5 87ZM43.5 4.36344C35.7595 4.36344 28.1929 6.65876 21.7569 10.9591C15.3209 15.2595 10.3047 21.3718 7.34254 28.5231C4.38038 35.6744 3.60535 43.5434 5.11544 51.1352C6.62554 58.7269 10.3529 65.7004 15.8263 71.1737C21.2996 76.6471 28.2731 80.3745 35.8648 81.8846C43.4566 83.3947 51.3256 82.6196 58.4769 79.6575C65.6282 76.6953 71.7405 71.6791 76.0409 65.2431C80.3412 58.8071 82.6366 51.2405 82.6366 43.5C82.6241 33.1242 78.4968 23.1768 71.16 15.84C63.8232 8.50318 53.8759 4.37588 43.5 4.36344Z" fill="#383838"/>
<path d="M66.636 54.117C65.7062 53.2074 64.7899 52.2844 63.8736 51.3647C62.729 50.2134 61.5442 49.0152 60.3594 47.8773C58.6811 46.2427 56.7109 45.8634 54.6869 46.7294C53.8904 47.1183 53.1617 47.6328 52.5287 48.2532C51.6124 49.0957 50.733 49.9986 49.8804 50.8713L49.2796 51.4855C49.001 51.3244 48.7191 51.17 48.4371 51.019C48.0042 50.784 47.5947 50.5625 47.1986 50.3108C44.7437 48.7185 42.5015 46.8202 40.5259 44.6618C38.7973 42.8023 36.8506 40.5333 35.5315 37.7676C35.5157 37.7373 35.5022 37.7059 35.4912 37.6736C35.5197 37.6396 35.55 37.6072 35.5818 37.5763L36.2833 36.8848C37.3104 35.8779 38.3677 34.8441 39.3478 33.7566C41.2543 31.642 41.2442 28.8326 39.3243 26.7684C38.1529 25.503 36.9143 24.2678 35.7194 23.0763C35.0079 22.3647 34.2963 21.6531 33.5948 20.9315C32.5878 19.8843 31.3359 18.7363 29.567 18.3906H28.2244H28.1237C26.8757 18.6352 25.7264 19.2396 24.8176 20.1293C23.475 21.4383 22.1525 22.7708 20.8704 24.0866C19.3475 25.6561 18.4952 27.7567 18.494 29.9436C18.4671 32.2323 18.856 34.5069 19.6419 36.6566C22.0586 43.6851 26.3012 50.0825 32.6113 56.2685C36.4113 59.9613 40.7645 63.0383 45.5137 65.3881C49.4374 67.3449 52.5992 68.3283 55.761 68.5834C56.1201 68.6136 56.4726 68.6271 56.8116 68.6271C59.0738 68.6271 60.8897 67.986 62.3363 66.677C64.0146 65.1632 65.5686 63.5219 67.0018 61.9779C69.1701 59.6116 69.0258 56.4665 66.636 54.117ZM36.4512 31.7796C35.3939 32.8839 34.2728 33.9681 33.1853 35.0186L32.8765 35.314C31.6917 36.4586 31.5104 37.3917 32.1817 38.8886C33.6888 42.2451 36.0417 45.0142 37.9213 47.0382C40.2858 49.6374 43.0057 51.8895 46.0003 53.7277C46.6515 54.1204 47.3429 54.4694 47.9874 54.8051L48.1451 54.8856C48.6555 55.1885 49.2555 55.3039 49.8418 55.212C50.4281 55.1201 50.964 54.8266 51.3573 54.3822C52.0286 53.731 52.6697 53.0731 53.3242 52.4186L54.9319 50.8142C55.1393 50.6025 55.3638 50.4083 55.6032 50.2336C56.3987 49.6663 57.1976 49.7066 57.8521 50.3477C60.4265 52.8717 62.5176 54.9662 64.4341 56.9364C65.2632 57.789 65.2699 58.712 64.4509 59.5981C63.0882 61.0817 61.6852 62.5216 60.2822 63.881C59.3726 64.7638 58.1978 65.1733 56.6706 65.1397C54.3211 65.0591 51.9044 64.4516 49.2696 63.2836C39.2404 58.8429 31.2755 51.5157 25.5997 41.5101C24.0225 38.8132 22.8892 35.8802 22.2432 32.8235C21.9377 31.3064 21.7397 29.6919 22.3674 28.1983C22.6803 27.4932 23.1104 26.8464 23.6395 26.2851C24.5591 25.2781 25.556 24.3047 26.5227 23.3616L27.1772 22.7205C28.013 21.9015 28.6977 21.7135 29.4697 22.0492C29.8052 22.2191 30.1085 22.4463 30.3659 22.7205C31.8897 24.2264 33.4091 25.7424 34.924 27.2685L36.3505 28.6984C36.3908 28.7364 36.4289 28.7768 36.4646 28.8192C37.4581 29.9302 37.4581 30.7123 36.4512 31.7796Z" fill="#383838"/>
</svg>
